<svg xmlns="http://www.w3.org/2000/svg" xmlns:xlink="http://www.w3.org/1999/xlink" version="1.1" id="Layer_1" x="0px" y="0px" viewBox="0 0 100 100" style="transform-origin: 50px 50px 0px;" xml:space="preserve">
<g style="transform-origin: 50px 50px 0px; transform: scale(0.6);">
<g style="transform-origin: 50px 50px 0px;">
<g style="transform-origin: 50px 50px 0px;">
<g class="ld ld-heartbeat" style="transform-origin: 50px 50px 0px; animation-duration: 1s; animation-delay: -0.941176s;">
<path class="st33" d="M69.8,82.6c-1.2,0-2.3-0.6-2.9-1.7c-0.9-1.6-0.4-3.7,1.2-4.6c9.4-5.4,15.2-15.5,15.2-26.3 s-5.8-20.9-15.2-26.3c-1.6-0.9-2.2-3-1.2-4.6c0.9-1.6,3-2.2,4.6-1.2C82.9,24.5,90,36.8,90,50s-7.1,25.5-18.6,32.2 C70.9,82.5,70.3,82.6,69.8,82.6z" fill="rgb(130, 153, 133)" style="fill: rgb(130, 153, 133);"/>
</g></g>
<g style="transform-origin: 50px 50px 0px;">
<g class="ld ld-heartbeat" style="transform-origin: 50px 50px 0px; animation-duration: 1s; animation-delay: -0.882353s;">
<path class="st34" d="M63.4,71.6c-1.2,0-2.3-0.6-2.9-1.7c-0.9-1.6-0.4-3.7,1.2-4.6c5.5-3.2,8.9-9.1,8.9-15.4s-3.4-12.2-8.9-15.4 c-1.6-0.9-2.2-3-1.2-4.6c0.9-1.6,3-2.2,4.6-1.2c7.5,4.4,12.2,12.5,12.2,21.2s-4.7,16.8-12.2,21.2C64.6,71.5,64,71.6,63.4,71.6z" fill="rgb(168, 185, 128)" style="fill: rgb(168, 185, 128);"/>
</g></g><g style="transform-origin: 50px 50px 0px;">
<g class="ld ld-heartbeat" style="transform-origin: 50px 50px 0px; animation-duration: 1s; animation-delay: -0.823529s;">
<path class="st35" d="M57.1,60.7c-1.2,0-2.3-0.6-2.9-1.7c-0.9-1.6-0.4-3.7,1.2-4.6C57,53.5,58,51.8,58,50c0-1.8-1-3.5-2.6-4.4 c-1.6-0.9-2.2-3-1.2-4.6c0.9-1.6,3-2.2,4.6-1.2c3.6,2.1,5.9,6,5.9,10.2s-2.3,8.1-5.9,10.2C58.2,60.5,57.7,60.7,57.1,60.7z" fill="rgb(240, 175, 107)" style="fill: rgb(240, 175, 107);"/>
</g></g><g class="ld ld-heartbeat" style="transform-origin: 50px 50px 0px; animation-duration: 1s; animation-delay: -0.764706s;">
<path class="st1" d="M44.2,24.3L28.7,36.6l-0.3,0.3H11.9c-1.1,0-1.9,0.9-1.9,1.9v22.3c0,1.1,0.9,1.9,1.9,1.9h16.4l0.3,0.3l15.5,12.4 c1.3,1,3.1,0.1,3.1-1.5V25.8C47.3,24.2,45.5,23.3,44.2,24.3z" fill="rgb(51, 51, 51)" style="fill: rgb(51, 51, 51);"/></g>
</g></g>
<style type="text/css" class="ld ld-heartbeat" style="transform-origin: 50px 50px 0px; animation-duration: 1s; animation-delay: -0.411765s;">path,ellipse,circle,rect,polygon,polyline,line { stroke-width: 0; }@keyframes ld-heartbeat {
  0% {
    -webkit-transform: scale(1.05);
    transform: scale(1.05);
  }
  5% {
    -webkit-transform: scale(1.25);
    transform: scale(1.25);
  }
  39% {
    -webkit-transform: scale(0.9);
    transform: scale(0.9);
  }
  45% {
    -webkit-transform: scale(1.15);
    transform: scale(1.15);
  }
  60% {
    -webkit-transform: scale(1.05);
    transform: scale(1.05);
  }
  100% {
    -webkit-transform: scale(1);
    transform: scale(1);
  }
}
@-webkit-keyframes ld-heartbeat {
  0% {
    -webkit-transform: scale(1.05);
    transform: scale(1.05);
  }
  5% {
    -webkit-transform: scale(1.25);
    transform: scale(1.25);
  }
  39% {
    -webkit-transform: scale(0.9);
    transform: scale(0.9);
  }
  45% {
    -webkit-transform: scale(1.15);
    transform: scale(1.15);
  }
  60% {
    -webkit-transform: scale(1.05);
    transform: scale(1.05);
  }
  100% {
    -webkit-transform: scale(1);
    transform: scale(1);
  }
}
.ld.ld-heartbeat {
  -webkit-animation: ld-heartbeat 0.8s infinite cubic-bezier(0.215, 0.61, 0.355, 1);
  animation: ld-heartbeat 0.8s infinite cubic-bezier(0.215, 0.61, 0.355, 1);
}
</style></svg>