<svg xmlns="http://www.w3.org/2000/svg" xmlns:xlink="http://www.w3.org/1999/xlink" version="1.1" id="Layer_1" x="0px" y="0px" viewBox="0 0 100 100" style="transform-origin: 50px 50px 0px;" xml:space="preserve">
<g style="transform-origin: 50px 50px 0px; transform: scale(0.6);"><g style="transform-origin: 50px 50px 0px;">
<g class="ld ld-breath" style="transform-origin: 50px 50px 0px; animation-duration: 1s; animation-delay: -0.923077s;">
<path class="st0" d="M77.48,28.757L61.231,12.508c-1.191-1.166-2.28-1.727-3.276-1.732H22.589c-0.943,0-1.711,0.762-1.711,1.698 v75.051c0,0.936,0.768,1.698,1.711,1.698h54.822c0.943,0,1.711-0.762,1.711-1.698V32.033C79.131,31.035,78.614,29.948,77.48,28.757z " fill="rgb(224, 224, 224)" style="fill: rgb(224, 224, 224);"/></g>
<g class="ld ld-breath" style="transform-origin: 50px 50px 0px; animation-duration: 1s; animation-delay: -0.846154s;">
<path class="st2" d="M62.414,28.757H77.48L61.231,12.508v15.066C61.231,28.226,61.762,28.757,62.414,28.757z" fill="rgb(102, 102, 102)" style="fill: rgb(102, 102, 102);"/></g>
<g class="ld ld-breath" style="transform-origin: 50px 50px 0px; animation-duration: 1s; animation-delay: -0.769231s;">
<path class="st3" d="M80.461,26.424L62.256,8.286C61.748,7.779,61.072,7.5,60.354,7.5H22.589c-2.75,0-4.987,2.232-4.987,4.975 v75.051c0,2.743,2.237,4.975,4.987,4.975h54.822c2.75,0,4.987-2.232,4.987-4.975V31.085C82.398,29.324,81.71,27.668,80.461,26.424z M77.48,28.757H62.414c-0.652,0-1.183-0.531-1.183-1.183V12.508L77.48,28.757z M77.411,89.224H22.589 c-0.943,0-1.711-0.762-1.711-1.698V12.475c0-0.936,0.768-1.698,1.711-1.698h35.366v16.798c0,2.459,2,4.459,4.459,4.459h16.708 v55.493C79.122,88.462,78.355,89.224,77.411,89.224z M80.461,26.424L62.256,8.286C61.748,7.779,61.072,7.5,60.354,7.5H22.589 c-2.75,0-4.987,2.232-4.987,4.975v75.051c0,2.743,2.237,4.975,4.987,4.975h54.822c2.75,0,4.987-2.232,4.987-4.975V31.085 C82.398,29.324,81.71,27.668,80.461,26.424z M77.48,28.757H62.414c-0.652,0-1.183-0.531-1.183-1.183V12.508L77.48,28.757z M77.411,89.224H22.589c-0.943,0-1.711-0.762-1.711-1.698V12.475c0-0.936,0.768-1.698,1.711-1.698h35.366v16.798 c0,2.459,2,4.459,4.459,4.459h16.708v55.493C79.122,88.462,78.355,89.224,77.411,89.224z M63.719,63.854 c0.766,1.816,0.177,4.272-1.621,6.071c-2.233,2.233-5.483,2.604-7.259,0.828c-1.776-1.776-1.405-5.026,0.828-7.259 c1.097-1.097,2.438-1.741,3.731-1.906V47.107l-17.233,4.731l0,17.786c0,0.296,0.078,0.582,0.183,0.858 c0.692,1.823,0.086,4.232-1.69,6.008c-2.26,2.26-5.549,2.635-7.346,0.838c-1.797-1.797-1.422-5.086,0.838-7.346 c1.144-1.144,2.551-1.803,3.895-1.944V52.713v-3.938c0-0.793,0.555-1.478,1.33-1.642l20.024-5.323l1.823-0.396 c1.181-0.256,2.296,0.643,2.296,1.851v19.729C63.518,63.292,63.603,63.579,63.719,63.854z" fill="rgb(50, 50, 50)" style="fill: rgb(50, 50, 50);"/></g>
</g></g>
<style type="text/css" class="ld ld-breath" style="transform-origin: 50px 50px 0px; animation-duration: 1s; animation-delay: -0.307692s;">path,ellipse,circle,rect,polygon,polyline,line { stroke-width: 0; }@keyframes ld-breath {
  0% {
    -webkit-transform: scale(0.86);
    transform: scale(0.86);
  }
  50% {
    -webkit-transform: scale(1.06);
    transform: scale(1.06);
  }
  100% {
    -webkit-transform: scale(0.86);
    transform: scale(0.86);
  }
}
@-webkit-keyframes ld-breath {
  0% {
    -webkit-transform: scale(0.86);
    transform: scale(0.86);
  }
  50% {
    -webkit-transform: scale(1.06);
    transform: scale(1.06);
  }
  100% {
    -webkit-transform: scale(0.86);
    transform: scale(0.86);
  }
}
.ld.ld-breath {
  -webkit-animation: ld-breath 1s infinite;
  animation: ld-breath 1s infinite;
}
</style></svg>