<svg xmlns="http://www.w3.org/2000/svg" xmlns:xlink="http://www.w3.org/1999/xlink" version="1.1" id="圖層_1" x="0px" y="0px" viewBox="0 0 100 100" style="transform-origin: 50px 50px 0px;" xml:space="preserve"><g style="transform-origin: 50px 50px 0px; transform: scale(0.6);"><g style="transform-origin: 50px 50px 0px;">Ç
<g class="ld ld-breath" style="transform-origin: 50px 50px 0px; animation-duration: 1s; animation-delay: -0.928571s;">
<rect x="34.615" y="40.553" class="st77" width="30.769" height="18.894" fill="rgb(74, 56, 39)" style="fill: rgb(74, 56, 39);"/>
</g><g class="ld ld-breath" style="transform-origin: 50px 50px 0px; animation-duration: 1s; animation-delay: -0.857143s;">
<rect x="34.615" y="15.83" class="st77" width="30.769" height="18.893" fill="rgb(74, 56, 39)" style="fill: rgb(74, 56, 39);"/>
</g><g class="ld ld-breath" style="transform-origin: 50px 50px 0px; animation-duration: 1s; animation-delay: -0.785714s;">
<rect x="34.615" y="65.277" class="st77" width="30.769" height="18.893" fill="rgb(74, 56, 39)" style="fill: rgb(74, 56, 39);"/>
</g><g class="ld ld-breath" style="transform-origin: 50px 50px 0px; animation-duration: 1s; animation-delay: -0.714286s;">
<path class="st7" d="M82.817,10.049c-1.407,0.254-2.371,1.578-2.371,3.008v3.703c0,1.319-1.069,2.388-2.388,2.388h-4.454 c-1.319,0-2.388-1.069-2.388-2.388v-3.846c0-1.61-1.305-2.915-2.915-2.915h-0.966H31.7c-0.126,0-0.246,0.022-0.367,0.037 c-1.435,0.182-2.548,1.394-2.548,2.878v3.846c0,1.319-1.069,2.388-2.388,2.388h-4.454c-1.319,0-2.388-1.069-2.388-2.388v-3.703 c0-1.43-0.964-2.754-2.371-3.008c-1.849-0.334-3.459,1.077-3.459,2.866l0,74.028c0,1.43,0.964,2.754,2.371,3.008 c1.849,0.334,3.459-1.078,3.459-2.866v-3.846c0-1.319,1.069-2.388,2.388-2.388h4.454c1.319,0,2.388,1.069,2.388,2.388v3.846 c0,1.484,1.113,2.696,2.548,2.878C31.455,89.978,31.575,90,31.7,90h35.633H68.3c1.61,0,2.915-1.305,2.915-2.915v-3.846 c0-1.319,1.069-2.388,2.388-2.388h4.454c1.319,0,2.388,1.069,2.388,2.388v3.703c0,1.43,0.964,2.754,2.371,3.008 c1.849,0.334,3.459-1.078,3.459-2.866v-74.17C86.275,11.127,84.665,9.715,82.817,10.049z M28.785,72.633 c0,1.319-1.069,2.388-2.388,2.388h-4.454c-1.319,0-2.388-1.069-2.388-2.388v-3.362c0-1.319,1.069-2.388,2.388-2.388h4.454 c1.319,0,2.388,1.069,2.388,2.388V72.633z M28.785,58.664c0,1.319-1.069,2.388-2.388,2.388h-4.454c-1.319,0-2.388-1.069-2.388-2.388 v-3.361c0-1.319,1.069-2.388,2.388-2.388h4.454c1.319,0,2.388,1.069,2.388,2.388V58.664z M28.785,44.697 c0,1.319-1.069,2.388-2.388,2.388h-4.454c-1.319,0-2.388-1.069-2.388-2.388v-3.361c0-1.319,1.069-2.388,2.388-2.388h4.454 c1.319,0,2.388,1.069,2.388,2.388V44.697z M28.785,30.729c0,1.319-1.069,2.388-2.388,2.388h-4.454c-1.319,0-2.388-1.069-2.388-2.388 v-3.362c0-1.319,1.069-2.388,2.388-2.388h4.454c1.319,0,2.388,1.069,2.388,2.388V30.729z M65.385,84.17H34.615V65.277h30.769V84.17z M65.385,59.447H34.615V40.553h30.769V59.447z M65.385,34.723H34.615V15.83h30.769V34.723z M80.445,72.633 c0,1.319-1.069,2.388-2.388,2.388h-4.454c-1.319,0-2.388-1.069-2.388-2.388v-3.362c0-1.319,1.069-2.388,2.388-2.388h4.454 c1.319,0,2.388,1.069,2.388,2.388V72.633z M80.445,58.664c0,1.319-1.069,2.388-2.388,2.388h-4.454c-1.319,0-2.388-1.069-2.388-2.388 v-3.361c0-1.319,1.069-2.388,2.388-2.388h4.454c1.319,0,2.388,1.069,2.388,2.388V58.664z M80.445,44.697 c0,1.319-1.069,2.388-2.388,2.388h-4.454c-1.319,0-2.388-1.069-2.388-2.388v-3.361c0-1.319,1.069-2.388,2.388-2.388h4.454 c1.319,0,2.388,1.069,2.388,2.388V44.697z M80.445,30.729c0,1.319-1.069,2.388-2.388,2.388h-4.454c-1.319,0-2.388-1.069-2.388-2.388 v-3.362c0-1.319,1.069-2.388,2.388-2.388h4.454c1.319,0,2.388,1.069,2.388,2.388V30.729z" fill="rgb(51, 51, 51)" style="fill: rgb(51, 51, 51);"/></g>
</g></g>
<style type="text/css" class="ld ld-breath" style="transform-origin: 50px 50px 0px; animation-duration: 1s; animation-delay: -0.285714s;">path,ellipse,circle,rect,polygon,polyline,line { stroke-width: 0; }@keyframes ld-breath {
  0% {
    -webkit-transform: scale(0.86);
    transform: scale(0.86);
  }
  50% {
    -webkit-transform: scale(1.06);
    transform: scale(1.06);
  }
  100% {
    -webkit-transform: scale(0.86);
    transform: scale(0.86);
  }
}
@-webkit-keyframes ld-breath {
  0% {
    -webkit-transform: scale(0.86);
    transform: scale(0.86);
  }
  50% {
    -webkit-transform: scale(1.06);
    transform: scale(1.06);
  }
  100% {
    -webkit-transform: scale(0.86);
    transform: scale(0.86);
  }
}
.ld.ld-breath {
  -webkit-animation: ld-breath 1s infinite;
  animation: ld-breath 1s infinite;
}
</style></svg>